<svg xmlns="http://www.w3.org/2000/svg" xmlns:xlink="http://www.w3.org/1999/xlink" version="1.1" width="100" height="100" viewBox="0 0 256 256" xml:space="preserve">

<defs>
</defs>
<g style="stroke: none; stroke-width: 0; stroke-dasharray: none; stroke-linecap: butt; stroke-linejoin: miter; stroke-miterlimit: 10; fill: none; fill-rule: nonzero; opacity: 1;" transform="translate(98.81400778210117 98.81400778210114) scale(0.64 0.64)" >
	<path d="M 14.253 73.718 v -2.13 c 0 -1.11 -0.904 -2.014 -2.014 -2.014 c -1.111 0 -2.014 0.904 -2.014 2.014 v 2.13 c 0 1.11 0.903 2.014 2.014 2.014 C 13.35 75.732 14.253 74.828 14.253 73.718 z" style="stroke: none; stroke-width: 1; stroke-dasharray: none; stroke-linecap: butt; stroke-linejoin: miter; stroke-miterlimit: 10; fill: rgb(74,122,233); fill-rule: nonzero; opacity: 1;" transform=" matrix(1 0 0 1 0 0) " stroke-linecap="round" />
	<path d="M 12.239 78.946 c -2.256 0 -4.091 1.835 -4.091 4.091 v 2.903 c 0.085 0.03 0.167 0.064 0.253 0.093 c 0.148 0.049 0.297 0.094 0.447 0.137 c 0.21 0.061 0.423 0.115 0.638 0.164 c 0.164 0.038 0.327 0.075 0.492 0.106 c 0.206 0.039 0.416 0.068 0.626 0.096 c 0.173 0.023 0.344 0.05 0.518 0.066 c 0.249 0.023 0.501 0.031 0.754 0.038 c 0.242 0.007 0.484 0.007 0.727 0 c 0.253 -0.007 0.506 -0.016 0.755 -0.038 c 0.173 -0.016 0.344 -0.043 0.516 -0.066 c 0.21 -0.028 0.42 -0.057 0.627 -0.096 c 0.164 -0.031 0.327 -0.068 0.49 -0.105 c 0.216 -0.05 0.43 -0.104 0.641 -0.165 c 0.149 -0.043 0.297 -0.088 0.444 -0.136 c 0.086 -0.029 0.169 -0.063 0.254 -0.093 v -2.903 C 16.33 80.781 14.495 78.946 12.239 78.946 z" style="stroke: none; stroke-width: 1; stroke-dasharray: none; stroke-linecap: butt; stroke-linejoin: miter; stroke-miterlimit: 10; fill: rgb(74,122,233); fill-rule: nonzero; opacity: 1;" transform=" matrix(1 0 0 1 0 0) " stroke-linecap="round" />
	<path d="M 42.986 12.749 v 2.13 c 0 1.111 0.904 2.014 2.014 2.014 c 1.11 0 2.014 -0.904 2.014 -2.014 v -2.13 c 0 -1.111 -0.904 -2.014 -2.014 -2.014 C 43.889 10.735 42.986 11.639 42.986 12.749 z" style="stroke: none; stroke-width: 1; stroke-dasharray: none; stroke-linecap: butt; stroke-linejoin: miter; stroke-miterlimit: 10; fill: rgb(74,122,233); fill-rule: nonzero; opacity: 1;" transform=" matrix(1 0 0 1 0 0) " stroke-linecap="round" />
	<path d="M 37.695 25.378 v -1.179 c 0 -2.526 1.289 -4.756 3.243 -6.068 c -0.718 -0.896 -1.167 -2.017 -1.167 -3.251 v -2.13 c 0 -2.883 2.345 -5.228 5.228 -5.228 c 2.883 0 5.228 2.345 5.228 5.228 v 2.13 c 0 1.235 -0.448 2.356 -1.167 3.251 c 1.954 1.312 3.244 3.542 3.244 6.068 v 1.179 c 2.988 -2.234 4.933 -5.788 4.933 -9.797 c 0 -6.748 -5.49 -12.239 -12.239 -12.239 S 32.761 8.833 32.761 15.581 C 32.761 19.59 34.707 23.144 37.695 25.378 z" style="stroke: none; stroke-width: 1; stroke-dasharray: none; stroke-linecap: butt; stroke-linejoin: miter; stroke-miterlimit: 10; fill: rgb(74,122,233); fill-rule: nonzero; opacity: 1;" transform=" matrix(1 0 0 1 0 0) " stroke-linecap="round" />
	<path d="M 79.775 73.718 v -2.13 c 0 -1.11 -0.904 -2.014 -2.014 -2.014 s -2.014 0.904 -2.014 2.014 v 2.13 c 0 1.11 0.904 2.014 2.014 2.014 S 79.775 74.828 79.775 73.718 z" style="stroke: none; stroke-width: 1; stroke-dasharray: none; stroke-linecap: butt; stroke-linejoin: miter; stroke-miterlimit: 10; fill: rgb(74,122,233); fill-rule: nonzero; opacity: 1;" transform=" matrix(1 0 0 1 0 0) " stroke-linecap="round" />
	<path d="M 77.761 78.946 c -2.256 0 -4.091 1.835 -4.091 4.091 v 2.903 c 0.085 0.03 0.169 0.065 0.255 0.093 c 0.145 0.048 0.291 0.092 0.438 0.135 c 0.217 0.063 0.437 0.119 0.659 0.17 c 0.155 0.035 0.31 0.071 0.466 0.1 c 0.221 0.042 0.445 0.073 0.669 0.102 c 0.158 0.021 0.316 0.046 0.475 0.06 c 0.284 0.026 0.573 0.037 0.862 0.044 c 0.183 0.004 0.366 0.003 0.549 -0.001 c 0.283 -0.007 0.565 -0.017 0.842 -0.043 c 0.165 -0.015 0.328 -0.041 0.492 -0.063 c 0.218 -0.029 0.435 -0.059 0.65 -0.099 c 0.161 -0.03 0.321 -0.067 0.481 -0.103 c 0.217 -0.05 0.433 -0.105 0.646 -0.167 c 0.149 -0.043 0.297 -0.088 0.444 -0.136 c 0.086 -0.029 0.169 -0.063 0.254 -0.093 v -2.903 C 81.852 80.781 80.017 78.946 77.761 78.946 z" style="stroke: none; stroke-width: 1; stroke-dasharray: none; stroke-linecap: butt; stroke-linejoin: miter; stroke-miterlimit: 10; fill: rgb(74,122,233); fill-rule: nonzero; opacity: 1;" transform=" matrix(1 0 0 1 0 0) " stroke-linecap="round" />
	<path d="M 77.761 62.18 c -4.091 0 -7.71 2.025 -9.934 5.117 l -11.385 -7.96 c 0.459 -0.722 1.24 -1.181 2.106 -1.181 h 0.001 c 1.393 0 2.522 -1.129 2.522 -2.522 v -3.857 c 0 -1.393 -1.129 -2.522 -2.522 -2.522 c -0.959 0 -1.819 -0.552 -2.259 -1.403 c -0.088 -0.17 -0.18 -0.338 -0.276 -0.506 c -0.096 -0.167 -0.196 -0.331 -0.3 -0.492 c -0.517 -0.807 -0.565 -1.828 -0.085 -2.658 c 0.697 -1.206 0.283 -2.749 -0.923 -3.445 l -3.34 -1.929 c -1.206 -0.697 -2.749 -0.283 -3.445 0.923 l -0.001 0.001 c -0.318 0.552 -0.834 0.932 -1.42 1.119 V 27.715 c 0.043 -0.006 0.086 -0.011 0.13 -0.016 c 0.212 -0.028 0.424 -0.058 0.633 -0.097 c 0.165 -0.031 0.328 -0.068 0.492 -0.106 c 0.213 -0.049 0.425 -0.103 0.633 -0.163 c 0.153 -0.044 0.305 -0.09 0.456 -0.14 c 0.084 -0.028 0.164 -0.061 0.247 -0.091 v -2.903 c 0 -2.256 -1.835 -4.091 -4.091 -4.091 s -4.091 1.835 -4.091 4.091 v 2.903 c 0.083 0.029 0.163 0.063 0.247 0.091 c 0.151 0.05 0.304 0.096 0.457 0.141 c 0.209 0.06 0.42 0.114 0.634 0.163 c 0.164 0.038 0.327 0.075 0.492 0.106 c 0.209 0.039 0.421 0.068 0.633 0.097 c 0.043 0.006 0.086 0.01 0.129 0.016 v 13.152 c -0.587 -0.187 -1.102 -0.569 -1.421 -1.121 l -0.001 -0.001 c -0.697 -1.206 -2.239 -1.619 -3.445 -0.923 l -3.34 1.929 c -1.206 0.697 -1.62 2.239 -0.923 3.445 l 0.001 0.001 c 0.472 0.816 0.447 1.828 -0.064 2.62 c -0.223 0.347 -0.429 0.704 -0.617 1.069 c -0.432 0.84 -1.295 1.37 -2.239 1.37 H 31.45 c -1.393 0 -2.522 1.129 -2.522 2.522 v 3.857 c 0 1.393 1.129 2.522 2.522 2.522 c 0.686 0 1.315 0.291 1.783 0.764 l -11.022 8.427 c -2.22 -3.122 -5.858 -5.169 -9.972 -5.169 C 5.491 62.18 0 67.671 0 74.42 c 0 4.009 1.946 7.563 4.934 9.796 v -1.179 c 0 -2.526 1.289 -4.756 3.244 -6.068 c -0.719 -0.896 -1.167 -2.017 -1.167 -3.251 v -2.13 c 0 -2.883 2.345 -5.228 5.228 -5.228 c 2.883 0 5.228 2.346 5.228 5.228 v 2.13 c 0 1.235 -0.448 2.356 -1.167 3.251 c 1.954 1.312 3.244 3.542 3.244 6.068 v 1.179 c 2.987 -2.234 4.933 -5.787 4.933 -9.796 c 0 -1.55 -0.301 -3.028 -0.829 -4.394 l 11.008 -8.416 c 0.079 0.547 0.003 1.11 -0.285 1.607 c -0.697 1.206 -0.283 2.749 0.923 3.445 l 3.34 1.929 c 1.206 0.697 2.749 0.283 3.445 -0.923 l 0.001 -0.001 c 0.472 -0.818 1.362 -1.3 2.306 -1.254 c 0.41 0.02 0.822 0.021 1.234 0 c 0.942 -0.046 1.83 0.438 2.302 1.255 l 0.001 0.001 c 0.697 1.206 2.238 1.62 3.445 0.923 l 3.34 -1.929 c 1.206 -0.696 1.62 -2.238 0.923 -3.445 l -0.001 -0.001 c -0.18 -0.311 -0.264 -0.652 -0.3 -0.997 l 11.052 7.727 c -0.548 1.388 -0.859 2.894 -0.859 4.474 c 0 4.009 1.946 7.563 4.934 9.797 v -1.179 c 0 -2.526 1.289 -4.756 3.244 -6.068 c -0.719 -0.896 -1.167 -2.017 -1.167 -3.251 v -2.13 c 0 -2.883 2.346 -5.228 5.228 -5.228 s 5.228 2.346 5.228 5.228 v 2.13 c 0 1.235 -0.448 2.356 -1.167 3.251 c 1.955 1.312 3.244 3.542 3.244 6.068 v 1.179 C 88.054 81.982 90 78.429 90 74.42 C 90 67.671 84.51 62.18 77.761 62.18 z M 48.57 59.891 c -3.416 1.972 -7.784 0.802 -9.756 -2.614 c -1.972 -3.416 -0.802 -7.784 2.614 -9.756 c 3.416 -1.972 7.784 -0.802 9.756 2.614 C 53.157 53.551 51.986 57.919 48.57 59.891 z" style="stroke: none; stroke-width: 1; stroke-dasharray: none; stroke-linecap: butt; stroke-linejoin: miter; stroke-miterlimit: 10; fill: rgb(74,122,233); fill-rule: nonzero; opacity: 1;" transform=" matrix(1 0 0 1 0 0) " stroke-linecap="round" />
</g>
</svg>